HIERARCHY
ROOT Hips
{
  OFFSET 263.056 91.6644 -274.608
  CHANNELS 6 Xposition Yposition Zposition Zrotation Xrotation Yrotation
  JOINT LeftUpLeg
  {
    OFFSET 8.64259 1.95398 -2.38835
    CHANNELS 3 Zrotation Xrotation Yrotation
    JOINT LeftLeg
    {
      OFFSET 43.7702 0 0
      CHANNELS 3 Zrotation Xrotation Yrotation
      JOINT LeftFoot
      {
        OFFSET 40.6238 0 0
        CHANNELS 3 Zrotation Xrotation Yrotation
        JOINT LeftToeBase
        {
          OFFSET 12.7242 0 0
          CHANNELS 3 Zrotation Xrotation Yrotation
          End Site
          {
            OFFSET 0 0 0
          }
        }
      }
    }
  }
  JOINT RightUpLeg
  {
    OFFSET -8.2249 1.95398 -2.59336
    CHANNELS 3 Zrotation Xrotation Yrotation
    JOINT RightLeg
    {
      OFFSET 43.5653 0 0
      CHANNELS 3 Zrotation Xrotation Yrotation
      JOINT RightFoot
      {
        OFFSET 40.6238 0 0
        CHANNELS 3 Zrotation Xrotation Yrotation
        JOINT RightToeBase
        {
          OFFSET 12.7242 0 0
          CHANNELS 3 Zrotation Xrotation Yrotation
          End Site
          {
            OFFSET 0 0 0
          }
        }
      }
    }
  }
  JOINT Spine
  {
    OFFSET 0.165834 0.87714 6.61349
    CHANNELS 3 Zrotation Xrotation Yrotation
    JOINT Spine1
    {
      OFFSET 7.38963 1.71661e-005 0
      CHANNELS 3 Zrotation Xrotation Yrotation
      JOINT Spine2
      {
        OFFSET 11.9445 1.14441e-005 0
        CHANNELS 3 Zrotation Xrotation Yrotation
        JOINT Spine3
        {
          OFFSET 14.7254 4.19617e-005 0
          CHANNELS 3 Zrotation Xrotation Yrotation
          JOINT Spine4
          {
            OFFSET 10.9679 0 0
            CHANNELS 3 Zrotation Xrotation Yrotation
            JOINT RightShoulder
            {
              OFFSET 2.46616 -1.6653 3.69651
              CHANNELS 3 Zrotation Xrotation Yrotation
              JOINT RightArm
              {
                OFFSET 13.0012 0 0
                CHANNELS 3 Zrotation Xrotation Yrotation
                JOINT RightForeArm
                {
                  OFFSET 28.7848 1.52588e-005 0
                  CHANNELS 3 Zrotation Xrotation Yrotation
                  JOINT RightHand
                  {
                    OFFSET 26.5688 1.52588e-005 0
                    CHANNELS 3 Zrotation Xrotation Yrotation
                    End Site
                    {
                      OFFSET 0 0 0
                    }
                  }
                }
              }
            }
            JOINT LeftShoulder
            {
              OFFSET 2.38034 -1.29275 -3.7523
              CHANNELS 3 Zrotation Xrotation Yrotation
              JOINT LeftArm
              {
                OFFSET 16.3182 6.10352e-005 0
                CHANNELS 3 Zrotation Xrotation Yrotation
                JOINT LeftForeArm
                {
                  OFFSET 27.0901 0 0
                  CHANNELS 3 Zrotation Xrotation Yrotation
                  JOINT LeftHand
                  {
                    OFFSET 24.5451 1.52588e-005 0
                    CHANNELS 3 Zrotation Xrotation Yrotation
                    End Site
                    {
                      OFFSET 0 0 0
                    }
                  }
                }
              }
            }
            JOINT Neck
            {
              OFFSET 5.0226 -0.0266342 0
              CHANNELS 3 Zrotation Xrotation Yrotation
              JOINT Head
              {
                OFFSET 6.69364 2.86102e-005 0
                CHANNELS 3 Zrotation Xrotation Yrotation
                End Site
                {
                  OFFSET 0 0 0
                }
              }
            }
          }
        }
      }
    }
  }
}
MOTION
Frames:	10
Frame Time:	0.0416667
4.66914 90.7025 -139.998 -121.565 -85.7808 -125.681 -173.155 7.38951 106.93 -16.0458 22.9444 4.71909 49.6296 -4.1391 2.79478 45.4519 18.7519 1.58145 178.934 17.5424 76.1605 -39.9258 4.23438 -9.22551 70.4183 -4.32244 -2.25303 49.161 1.88756 5.41323 -0.119077 7.63758 -89.7674 11.5987 -0.127912 0.476627 -0.0723018 -0.106817 0.481786 -22.6069 -0.265248 0.41615 -2.59429 -0.265248 0.416146 78.6338 -52.6737 -116.811 16.9337 -5.6894 11.9556 -3.75084 -10.8999 -36.5366 -8.29083 -0.729891 4.74386 -100.787 -43.9969 60.458 -28.2653 1.63166 3.53447 4.8476 3.34003 -33.0822 18.0111 1.68789 5.51788 5.21974 0.0801717 1.65455 2.19402 -0.29246 -1.36822 
7.4116 90.4999 -139.895 -137.339 -86.2057 -140.629 -173.38 8.39247 106.386 -19.4217 24.0767 4.51021 52.5964 -0.999524 6.34874 50.6335 23.4575 -1.83743 178.058 16.2724 75.0862 -38.136 4.13598 -9.16731 67.9683 -3.25121 -1.75453 51.3157 2.02789 4.70198 -0.111632 7.71069 -89.85 11.4526 -0.151977 0.314199 -0.218362 -0.138008 0.320582 -22.7534 -0.239384 0.253997 -2.74073 -0.239386 0.254003 78.6643 -52.7507 -116.737 16.2412 -4.85918 12.2151 -3.34765 -10.1419 -35.7735 -7.88279 -0.681254 4.50319 -100.704 -43.7505 60.4807 -28.2385 1.77095 2.78471 6.48688 6.61882 -33.0823 15.6734 1.60946 6.30532 5.09309 -0.476086 1.081 2.45861 -0.720381 -1.09644 
10.2182 90.4682 -139.866 -142.345 -85.9645 -145.375 -173.207 9.26948 104.872 -22.6418 23.4441 4.22614 55.1008 1.71584 10.0675 53.3013 25.1282 -5.19948 178.069 15.0197 73.8546 -35.7214 3.14307 -9.93227 65.5185 -2.51831 -1.38937 51.021 2.02523 4.89871 -0.033526 7.75394 -89.8976 11.366 -0.0189388 0.205777 -0.304989 -0.0098626 0.206395 -22.84 -0.0799088 0.190572 -2.82739 -0.0799036 0.190572 78.6893 -52.7735 -116.692 15.7704 -3.98884 12.8675 -3.86285 -10.3125 -35.5997 -8.0839 -0.725717 4.96756 -100.902 -43.8248 60.2087 -28.3341 2.50962 2.28036 6.55732 7.37877 -33.0365 14.7583 1.57684 6.66582 4.83918 -0.817517 1.12326 2.18614 -1.05077 -0.939097 
12.9633 90.7759 -140.039 -159.539 -85.8428 -162.625 -173.924 10.2837 103.054 -26.0324 23.0971 4.28238 56.7711 3.46443 11.2642 53.1789 24.7264 -6.1106 177.551 13.2556 72.2614 -33.2564 1.05863 -10.646 62.4303 -1.344 -0.722159 49.7378 1.54925 2.14206 -0.0518066 7.81717 -89.8954 11.2396 -0.0543862 0.213633 -0.431384 -0.0449354 0.215811 -22.9664 -0.116082 0.187416 -2.95378 -0.116077 0.187408 78.271 -53.2736 -117.089 15.1719 -2.53013 13.4229 -4.48837 -10.2162 -35.1177 -7.91887 -0.687333 4.53338 -101.311 -43.7743 59.5623 -28.0022 3.95708 1.981 5.74428 7.31495 -32.6307 15.0174 1.61844 6.77021 4.26813 -1.37386 1.02701 2.31349 -1.56663 -0.751797 
15.6272 91.2138 -140.223 -173.834 -85.5713 -177.188 -174.712 11.2211 101.169 -28.654 23.7433 4.03951 56.8109 4.06436 12.4111 52.9581 24.5689 -5.92811 177.355 12.1813 70.8104 -31.4393 0.253537 -11.6402 58.5398 0.344527 0.378965 47.7855 1.27438 1.03923 -0.0474881 7.89886 -89.8521 11.0761 -0.0258629 0.296864 -0.594881 -0.0127663 0.297712 -23.1298 -0.113887 0.275368 -3.11715 -0.113886 0.275369 78.6012 -53.7231 -116.443 15.2492 -0.843914 13.1569 -4.9078 -9.52555 -34.7162 -7.56457 -0.634144 4.10842 -101.537 -43.6065 59.1432 -27.4264 5.29993 1.43473 5.34343 7.89677 -32.5184 15.1873 1.64864 6.85653 3.84946 -1.86717 0.977245 2.53944 -2.06407 -1.19066 
18.2535 91.8107 -140.3 179.798 -85.4623 176.651 -174.71 11.7147 99.835 -29.7187 22.7893 3.56548 57.7431 5.02794 12.3452 52.8041 23.7285 -8.2493 177.426 11.4353 70.0795 -29.3576 0.121569 -12.3521 54.8772 1.71675 1.41086 41.7567 0.781877 -0.29034 -0.0169106 7.91239 -89.8446 11.0489 0.0384261 0.305502 -0.622042 0.0518353 0.303516 -23.1569 -0.0551687 0.302927 -3.14428 -0.0551659 0.302932 79.5486 -53.4532 -115.202 16.8886 0.70571 12.7359 -5.93179 -9.93566 -34.8448 -7.60601 -0.674791 4.7245 -101.426 -43.2043 59.1366 -27.211 6.54388 1.39382 4.99556 8.28268 -32.6176 14.6548 1.53455 6.45429 3.26 -2.16262 1.09963 2.41385 -2.36935 -1.17903 
20.8958 92.6013 -140.232 -177.904 -86.0102 179.448 -174.573 11.5629 98.6009 -28.9156 22.1994 3.15271 58.4882 6.10394 13.1938 51.9132 22.5136 -9.63938 177.408 11.5095 69.8906 -26.4984 2.18908 -12.3883 51.882 2.54714 2.15564 30.9171 0.0825108 1.24058 0.0788238 7.85184 -89.9075 11.17 0.199942 0.16465 -0.50095 0.206997 0.15568 -23.0361 0.141207 0.21713 -3.02343 0.141212 0.217123 80.4291 -52.76 -114.203 18.6621 2.5809 12.7479 -7.0641 -9.18823 -36.1214 -5.86877 -0.5336 4.56547 -101.643 -43.3879 58.8846 -26.7149 7.29468 1.67033 4.6375 8.08087 -32.8915 14.3621 1.36838 5.52554 3.14716 -2.34205 1.85153 2.33434 -2.68188 -1.43462 
23.1945 93.2536 -140.267 -166.04 -86.502 -168.5 -174.473 11.2893 97.3035 -27.8051 20.9662 2.75047 58.8256 6.53763 13.3321 51.1687 21.8331 -9.64122 177.426 12.4438 69.8304 -25.5674 2.93011 -12.0589 50.953 2.81465 2.40716 25.2854 -0.274135 0.664128 0.17763 7.77548 -89.9037 11.3227 0.398413 0.151875 -0.348236 0.404712 0.134182 -22.8837 0.334346 0.264593 -2.87105 0.33435 0.26459 80.6532 -52.2648 -114.063 20.0854 3.3056 12.8653 -7.55987 -8.45373 -37.5792 -4.24297 -0.392893 4.03283 -101.468 -43.3925 59.1543 -26.6132 7.43493 2.55652 5.21059 8.60077 -34.0508 13.2715 1.26109 5.44444 3.16711 -2.46208 2.73431 2.00261 -2.97611 -2.13417 
25.0274 93.837 -140.376 -160.68 -86.6936 -163.34 -174.622 10.7386 95.9053 -26.4649 19.8243 2.47943 58.8724 6.61571 12.8698 50.1149 20.7616 -10.0813 177.857 13.0651 70.4758 -26.9023 2.2205 -12.2936 52.9462 2.48413 2.04454 26.7898 -0.173467 0.661159 0.171284 7.74049 -89.8224 11.3923 0.423706 0.310963 -0.27858 0.436986 0.292011 -22.8138 0.310659 0.423936 -2.80113 0.31066 0.423927 80.089 -52.6136 -114.747 20.3964 2.80452 12.7087 -8.01723 -8.43322 -39.1378 -2.40741 -0.262639 3.84603 -100.882 -43.4777 60.0897 -26.2721 7.26094 3.56044 5.67359 8.65648 -35.0499 12.0431 1.19121 5.74031 3.54938 -2.39959 3.18987 1.81752 -3.02589 -2.78655 
26.5814 94.3719 -140.587 -157.478 -86.3883 -159.943 -174.583 10.002 95.16 -25.4356 19.7319 2.29156 58.773 6.34513 13.012 49.2306 19.81 -10.7227 178.754 13.0378 72.196 -28.7103 2.3283 -12.5282 55.8151 1.45233 1.19604 29.0043 -0.0673643 1.33624 0.186734 7.78225 -89.782 11.3085 0.4732 0.386927 -0.362448 0.489772 0.365713 -22.8975 0.33504 0.511252 -2.8849 0.335035 0.51125 80.0767 -52.6835 -114.738 20.9824 1.69006 11.9773 -7.83352 -9.15241 -39.8725 -2.43967 -0.25688 2.62194 -100.678 -43.427 60.382 -25.9066 6.68291 4.5003 5.83948 8.27216 -35.4218 12.1488 1.16922 5.49375 4.33748 -2.34439 3.05639 1.21047 -2.95023 -2.71647 
